# xmcd
#
# Track frame offsets: 
#        150
#        15601
#        31703
#        47235
#        62207
#        75630
#        90502
#        107314
#        121549
#        137482
#        152304
#
# Disc length: 2232 seconds
#
# Revision: 0
# Processed by: cddbd v1.5.2PL0 Copyright (c) Steve Scherf et al.
# Submitted via: ExactAudioCopy v0.99pb4
#
DISCID=6f08b60b
DTITLE=Wade Hayes - Place To Turn Around
DYEAR=2009
DGENRE=Country
TTITLE0=Good Day To Go Crazy
TTITLE1=The Best Part
TTITLE2=God Made Me (to love you)
TTITLE3=What's A broken Heart For You
TTITLE4=Right Where I Want You
TTITLE5=I Want To
TTITLE6=She Knows Me
TTITLE7=Every Time I Give The Devil A Ride
TTITLE8=I Wouldn't Know
TTITLE9=Place To Turn Around
TTITLE10=Drinkin' Thing
EXTD=
EXTT0=
EXTT1=
EXTT2=
EXTT3=
EXTT4=
EXTT5=
EXTT6=
EXTT7=
EXTT8=
EXTT9=
EXTT10=
PLAYORDER=
